<svg width="400" height="400" viewBox="0 0 400 400" xmlns="http://www.w3.org/2000/svg">
  <!-- Email envelope -->
  <g transform="translate(200, 180)">
    <!-- Main envelope body -->
    <rect x="-80" y="-40" width="160" height="100" rx="8" ry="8" fill="#455A64" stroke="white" stroke-width="4"/>
    
    <!-- Envelope flap (back) -->
    <path d="M -80 -40 L 0 20 L 80 -40 Z" fill="#455A64" stroke="white" stroke-width="4"/>
    
    <!-- Email content lines -->
    <rect x="-60" y="-20" width="80" height="4" rx="2" ry="2" fill="white"/>
    <rect x="-60" y="-10" width="60" height="4" rx="2" ry="2" fill="white"/>
    <rect x="-60" y="0" width="70" height="4" rx="2" ry="2" fill="white"/>
    <rect x="-60" y="10" width="50" height="4" rx="2" ry="2" fill="white"/>
    
    <!-- @ symbol -->
    <g transform="translate(45, -5)">
      <circle cx="0" cy="0" r="12" fill="none" stroke="#FF9800" stroke-width="3"/>
      <circle cx="0" cy="0" r="6" fill="#FF9800"/>
      <path d="M 12 0 Q 12 -8 20 -8 Q 28 -8 28 0 Q 28 8 20 8 Q 16 8 16 4" 
            fill="none" stroke="#FF9800" stroke-width="3" stroke-linecap="round"/>
    </g>
  </g>
  
  
</svg>